<?xml version="1.0" encoding="UTF-8"?>
<svg width="86px" height="28px" viewBox="0 0 86 28" version="1.1" xmlns="http://www.w3.org/2000/svg" xmlns:xlink="http://www.w3.org/1999/xlink">
    <title>Logo</title>
    <defs></defs>
    <g id="Primary-Nav" stroke="none" stroke-width="1" fill="none" fill-rule="evenodd">
        <g id="Primary-Nav-Selected-Hover-Copy" transform="translate(-12.000000, -14.000000)" fill-rule="nonzero">
            <g id="Logo" transform="translate(12.000000, 14.000000)">
                <path d="M79.2187913,21.9159902 L81.6071355,21.9159902 L85.774034,11.414051 L83.4110977,11.414051 L81.6918286,16.6396127 L79.8963357,11.414051 L77.2539123,11.414051 L80.4044941,19.002549 L79.2187913,21.9159902 Z M67.2686008,13.9209655 L67.2686008,19.2989747 L64.8633179,19.2989747 L64.8633179,11.414051 L66.5656484,11.414051 L67.0738068,12.1000648 C67.7428819,11.5495599 68.4458343,11.219257 69.241949,11.219257 C70.3175509,11.219257 71.1560122,11.5326213 71.6472319,12.3372053 C72.3925308,11.6681302 73.1547683,11.219257 74.1541464,11.219257 C76.0089244,11.219257 77.1099341,12.1762885 77.1099341,14.8017733 L77.1099341,19.2820361 L74.6877127,19.2820361 L74.6877127,15.0812604 C74.6877127,13.8701497 74.1964929,13.5144388 73.4173168,13.5144388 C72.9684436,13.5144388 72.5788555,13.6330091 72.1469209,13.9040269 C72.1892675,14.1750447 72.1892675,14.4714704 72.1892675,14.7848347 L72.1892675,19.2650975 L69.8009232,19.2650975 L69.8009232,15.0643218 C69.8009232,13.8532111 69.3097035,13.4975002 68.5135887,13.4975002 C68.0477769,13.5313774 67.7005354,13.6414784 67.2686008,13.9209655 Z M58.8585801,14.5815714 L61.9668154,14.5815714 C61.7889599,13.5652547 61.2469244,13.0740349 60.4254017,13.0740349 C59.7224493,13.0740349 59.0364355,13.4890309 58.8585801,14.5815714 Z M60.5778492,19.4514222 C58.2487901,19.4514222 56.3940121,18.2995966 56.3940121,15.2845237 C56.3940121,12.4473063 58.189505,11.2361956 60.2644849,11.2361956 C62.7713994,11.2361956 63.8808785,12.9978112 63.8808785,15.7503356 L58.8331722,15.7503356 C59.0110276,17.1223631 59.8494889,17.5119512 60.9674373,17.5119512 C61.9075302,17.5119512 62.7290529,17.3002185 63.4150666,16.8852225 L63.0847637,18.7992857 C62.4410965,19.2396896 61.653451,19.4514222 60.5778492,19.4514222 Z M51.6850781,17.4187888 C52.235583,17.4187888 52.6421097,17.3171571 53.0740443,17.0122621 L53.0740443,13.573724 C52.6844562,13.3365834 52.3118067,13.243421 51.7613019,13.243421 C50.5840683,13.243421 49.9065239,14.0480051 49.9065239,15.3776861 C49.9065239,16.6565513 50.5840683,17.4187888 51.6850781,17.4187888 Z M53.5398561,18.7061233 C52.9131274,19.1719351 52.1932364,19.4683608 51.1769198,19.4683608 C49.0257161,19.4683608 47.4588945,18.1386798 47.4588945,15.403094 C47.4588945,12.6844469 49.2374487,11.219257 51.5495692,11.219257 C52.0746662,11.219257 52.6082324,11.2954807 53.0740443,11.4733361 L53.0740443,8.14489895 L55.4793271,8.14489895 L55.4793271,19.2905054 L53.9548521,19.2905054 L53.5398561,18.7061233 Z M37.2279731,14.6239179 L37.2279731,8.79703549 L39.7348876,8.79703549 L39.7348876,14.5815714 C39.7348876,16.6565513 40.6749806,17.0884859 41.9453764,17.0884859 C43.3343426,17.0884859 44.0542336,16.4786959 44.0542336,14.5815714 L44.0542336,8.79703549 L46.5780867,8.79703549 L46.5780867,14.6239179 C46.5780867,18.062456 45.0705503,19.4937687 41.8268061,19.4937687 C38.7947947,19.5107073 37.2279731,18.2572501 37.2279731,14.6239179 Z" id="Shape" fill="#EDECE6"></path>
                <path d="M31.4492352,15.8459226 C31.3287554,15.7426542 31.2082756,15.69102 31.0705844,15.6652029 C30.2530429,16.4827444 29.2633874,17.3347087 28.385606,17.8940792 C27.9897438,18.1694616 27.4734019,18.2899414 27.1377796,18.2899414 C26.3632666,18.2899414 26.0276443,17.5584569 25.9243759,16.3622646 C25.7866847,14.7702101 25.7092334,12.8855619 25.7092334,9.9424125 C25.7092334,6.93902324 25.0293831,4.89086666 23.2049747,4.73596406 C23.1275234,4.73596406 23.0500721,4.71875266 22.9640151,4.71875266 C21.8538798,4.71875266 21.3117207,5.29533456 20.5974476,6.74969784 C19.9778372,7.99752432 19.0484217,9.813327 17.2756475,13.2470013 C15.7438329,16.207362 14.0571157,18.8493119 12.6027524,20.6565089 C12.2068902,21.1556395 11.8884793,21.5084732 11.5700684,21.7064043 C11.3721373,21.8440955 11.1742063,21.9043354 10.9762752,21.9043354 C10.3996933,21.9043354 9.98661967,21.4310219 9.84032277,20.2950695 C9.79729427,20.0196871 9.78008287,19.7184876 9.78008287,19.3828653 C9.78008287,17.0593263 10.6578643,13.2814241 12.1810731,7.72214193 C13.3084198,3.66025157 12.8265006,0.906427608 10.3996933,0.906427608 C10.3996933,0.906427608 10.3996933,0.906427608 10.3824819,0.906427608 L10.3652705,0.906427608 C9.80589997,0.906427608 9.34979787,1.10435871 8.91090718,1.4657981 C8.47201648,1.8014204 8.03312579,2.54151059 7.63726359,3.53116608 C7.1983729,4.70154126 4.41873183,10.2694291 0.00400778596,13.1265215 C-0.0562321133,14.2194453 0.563378279,15.3123692 1.81120476,15.432849 C2.94715715,15.5361174 3.75609294,15.0541982 4.78877693,14.3571365 C4.71132563,14.7185759 4.63387433,15.0369868 4.57363443,15.3295806 C4.49618313,15.69102 4.43594323,15.9836138 4.37570333,16.2245734 C4.29825203,16.5860128 4.23801213,16.8183667 4.23801213,16.8786066 C4.10032094,17.5326398 3.99705254,18.1694616 3.91960124,18.7632549 C3.29999085,24.3311427 5.89030651,27.0935724 8.91090718,27.0935724 C9.41003777,27.0935724 9.92637977,27.0333325 10.4169047,26.9128527 C13.7559162,26.0608884 16.9572366,22.2399577 20.7523502,13.4621438 C20.6921103,14.4173764 20.6921103,15.3123692 20.7351388,16.1471221 C20.9933098,21.198668 22.9812265,22.7046654 25.8038961,22.7046654 C27.9295039,22.7046654 29.934632,21.5945302 30.9501046,20.2176182 C31.6815891,19.2451741 32,18.1694616 32,17.3174973 C31.9827886,16.637647 31.7848575,16.121305 31.4492352,15.8459226" id="Shape" fill="#EB5352"></path>
            </g>
        </g>
    </g>
</svg>
