<svg id="adidas" xmlns="http://www.w3.org/2000/svg" width="46.6" height="31.49" viewBox="0 0 46.6 31.49"><title>adidas</title><polyline points="30.54 20.62 21.02 4.02 27.86 0 39.76 20.62" style="fill:#a1a7b3"/><polyline points="13.09 11.2 20.03 7.28 27.67 20.62 20.43 20.62 20.43 22.58 18.45 22.58 18.45 20.62" style="fill:#a1a7b3"/><polyline points="5.06 18.3 11.9 14.33 15.57 20.62 6.35 20.62" style="fill:#a1a7b3"/><path d="M45.62,22.8a1,1,0,1,1,0-2,1,1,0,1,1,0,2m0-1.83a.85.85,0,1,0,.79.85.79.79,0,0,0-.79-.85" transform="translate(-0.31 -0.16)" style="fill:#a1a7b3"/><path d="M45.83,22.36l-.2-.45h-.2v.45h-.15V21.29h.45a.34.34,0,0,1,.29.31.3.3,0,0,1-.19.31l.19.45m-.39-.94h-.2v.36h.2c.2,0,.2-.05.2-.18s0-.18-.2-.18" transform="translate(-0.31 -0.16)" style="fill:#a1a7b3"/><path d="M43.34,31.63c-2.18,0-3.47-1.11-3.57-2.72h2.08c0,.54.3,1.25,1.59,1.3.89,0,1.38-.54,1.38-.94-.09-.63-.89-.67-1.68-.81a8.16,8.16,0,0,1-2.08-.53A2.13,2.13,0,0,1,40,26c0-1.43,1.2-2.54,3.28-2.54s3.27,1,3.37,2.58h-2c0-.39-.1-1.07-1.29-1.07-.8,0-1.29.14-1.39.72,0,.8,1.68.76,3,1.07a2.3,2.3,0,0,1,2,2.14c0,2-1.59,2.72-3.57,2.72" transform="translate(-0.31 -0.16)" style="fill:#a1a7b3"/><path d="M32.53,27.54a2.27,2.27,0,0,0,2.28,2.28,2.33,2.33,0,0,0,2.28-2.28,2.36,2.36,0,0,0-2.28-2.27,2.29,2.29,0,0,0-2.28,2.27m2.18,4.11a4.09,4.09,0,0,1,0-8.17,4,4,0,0,1,2.38.71v-.62H39v7.9H37.09V31a4.38,4.38,0,0,1-2.38.67" transform="translate(-0.31 -0.16)" style="fill:#a1a7b3"/><path d="M23.41,27.54a2.33,2.33,0,0,0,2.28,2.28A2.27,2.27,0,0,0,28,27.54a2.29,2.29,0,0,0-2.28-2.27A2.36,2.36,0,0,0,23.41,27.54ZM28,20.85h2V31.47H28V31a3.8,3.8,0,0,1-2.28.67,4.09,4.09,0,1,1,0-8.17,3.51,3.51,0,0,1,2.28.71Z" transform="translate(-0.31 -0.16)" style="fill:#a1a7b3"/><path d="M19.75,31.4V23.45" transform="translate(-0.31 -0.16)" style="fill:#a1a7b3;stroke:#a1a7b3;stroke-width:2px"/><path d="M11.31,27.54a2.27,2.27,0,0,0,2.28,2.28,2.34,2.34,0,0,0,2.29-2.28,2.37,2.37,0,0,0-2.29-2.27,2.3,2.3,0,0,0-2.28,2.27m2.19,4.11a4.09,4.09,0,1,1,2.38-7.46V20.85h2V31.47h-2V31a4.38,4.38,0,0,1-2.38.67" transform="translate(-0.31 -0.16)" style="fill:#a1a7b3"/><path d="M2.19,27.54a2.33,2.33,0,0,0,2.28,2.28,2.27,2.27,0,0,0,2.28-2.28,2.29,2.29,0,0,0-2.28-2.27,2.36,2.36,0,0,0-2.28,2.27m2.18,4.11a4.09,4.09,0,0,1,0-8.17,4,4,0,0,1,2.38.71v-.62h2v7.9h-2V31a4.12,4.12,0,0,1-2.38.67" transform="translate(-0.31 -0.16)" style="fill:#a1a7b3"/></svg>