<?xml version="1.0" encoding="utf-8"?>
<!-- Generator: Adobe Illustrator 22.1.0, SVG Export Plug-In . SVG Version: 6.00 Build 0)  -->
<svg version="1.1" id="Layer_1" xmlns="http://www.w3.org/2000/svg" xmlns:xlink="http://www.w3.org/1999/xlink" x="0px" y="0px"
	 viewBox="0 0 1162 220" style="enable-background:new 0 0 1162 220;" xml:space="preserve">
<style type="text/css">
	.st0{fill:#A1A7B3;}
</style>
<path class="st0" d="M109.8,0c30.3,0,57.8,12.3,77.7,32.2c19.9,19.9,32.2,47.3,32.2,77.7c0,30.3-12.3,57.8-32.2,77.7
	s-47.3,32.2-77.7,32.2S52,207.4,32.2,187.5S0,140.2,0,109.8S12.3,52,32.2,32.2C52,12.3,79.5,0,109.8,0z M195.7,154.7
	c7.2-13.7,11-29,11-44.9c0-25.9-10.1-50.2-28.4-68.5C161,24,138.2,14.1,113.9,13.1l11.8,87.6L195.7,154.7z M105.8,13.1
	c-24.3,1-47.1,10.9-64.4,28.3C23.1,59.7,13,84,13,109.8c0,15.9,3.8,31.2,11,44.9l70-54L105.8,13.1z M109.8,206.7
	c25.9,0,50.2-10.1,68.5-28.4c5.1-5.1,9.5-10.7,13.3-16.6l-81.8-33.6L28,161.7c3.8,5.9,8.2,11.5,13.3,16.6
	C59.7,196.6,84,206.7,109.8,206.7z M322.9,125.7L299.6,62l-2.8,74.8v1.1c0,6.3,1.9,7.6,11.7,8.3v3.4c-6.9-0.6-10-0.7-14-0.7
	c-4,0-7.3,0.1-14.5,0.7v-3.4c10-0.7,11.5-1.9,11.9-9.5l2.9-70.6l0.1-0.9c0.3-3.6-1-6.2-3.6-7.2c-2-0.9-4.2-1.3-8.3-1.4v-3.6
	c5.4,0.4,7.9,0.6,11.7,0.6c5,0,8.2-0.1,13.6-0.7l26.6,72.6L361.9,53c6.3,0.6,9.7,0.7,13.7,0.7c3.6,0,6-0.1,11.3-0.6v3.4
	c-9.6,0.7-12.3,2.6-11.9,8.5l0.1,1.1l1.4,70.6c0,7.5,1.7,8.9,11.9,9.5v3.4c-8.7-0.7-12.9-1-17.9-1c-5.3,0-9.3,0.3-18,1v-3.4
	c9.7-0.6,11.9-2.2,11.9-8.9v-0.7l-1.1-74.3l-23.8,64c-0.4,1.4-1,3-2.3,6.6c-0.1,0.4-0.3,0.7-0.4,1.1c-1,2.6-1.4,3.8-4.5,12.6h-2.1
	l-3.4-10.2C325.5,132.9,324.2,129.3,322.9,125.7L322.9,125.7z M429.1,146c10,0,16.5-6.6,18.2-18.8v0h5.6
	c-1.7,14.8-11.2,23.5-25.5,23.5c-17.6,0-28.8-13.6-28.8-35.4c0-20.9,11.3-35.1,28-35.1c16.2,0,25.6,12.2,26,33.7h-42.5
	c0.3,10.8,1,15.9,2.7,20.5C415.9,142.1,421.4,146,429.1,146z M426.5,83.8c-9.3,0-14.6,8.3-16,24.8h30.8
	C440.6,91.9,435.7,83.8,426.5,83.8z M472.9,94.5c0-8.9-0.1-9.2-10.2-9.3h0v-2.4c7.6-0.7,13.7-1.9,18.9-3.4c0.9,5.6,1.1,7.9,1.3,13.6
	c3.3-8.3,9.3-13,16.7-13c7.3,0,12.5,4.9,12.5,11.6c0,4.2-2.3,6.9-6,6.9c-3.3,0-5.9-2-5.9-4.7c0-0.2,0-0.3,0-0.4
	c0-0.4,0.1-0.8,0.6-2.6c0.1-0.4,0.1-0.9,0.1-1.3c0-2-1.9-3.4-4.3-3.4c-7.6,0-12.3,9-12.3,23.2v30c0,6.2,1.6,7.3,10.3,7.7v2.9
	c-7.6-0.7-11.3-0.9-16-0.9c-4.9,0-8.6,0.1-16,0.9v-2.9c8.7-0.4,10.3-1.6,10.3-7.7V94.5z M565.2,78.5h2.6v23.7h-3.1
	c-1.1-5-1.9-7.3-3.4-10.2c-2.7-5.2-7.7-8.3-13.2-8.3c-10.9,0-17,11.8-17,32.1c0,20.1,5.6,30.3,16.6,30.3c8.9,0,14.2-6.3,15.9-18.9
	h5.7c-1.7,15.3-9.9,23.7-22.8,23.7c-16.7,0-27.9-14.1-27.9-34.9c0-21.5,11.6-36.1,28.3-36.1c6,0,10,1.7,14.6,6L565.2,78.5z
	 M611.3,146c10,0,16.5-6.6,18.2-18.8v0h5.6c-1.7,14.8-11.2,23.5-25.5,23.5c-17.6,0-28.8-13.6-28.8-35.4c0-20.9,11.3-35.1,28-35.1
	c16.2,0,25.6,12.2,26,33.7h-42.5c0.3,10.8,1,15.9,2.7,20.5C598.1,142.1,603.6,146,611.3,146z M608.7,83.8c-9.3,0-14.6,8.3-16,24.8
	h30.8C622.8,91.9,617.9,83.8,608.7,83.8z M701,134.8c0,8.6,0.9,9.5,10.5,9.8h0v2.5c-10,1.3-13,1.9-18.9,3.7
	c-1.3-5.3-1.4-6.2-1.9-11.5c-4.1,8-9.7,11.8-17.7,11.8c-15.6,0-26.6-14.5-26.6-35.1c0-20.7,10.7-35.1,26-35.1
	c7.7,0,11.9,2.6,17.2,11.2V66.6c0-7.3-1.1-8.3-10.2-8.3v-2.6c6.6-0.4,15.3-2,21.6-3.7V134.8z M689.7,117c0-21.4-5.4-32.3-16-32.3
	c-10.2,0-15.3,10.3-15.3,31c0,20.4,5.4,31.3,15.9,31.3C684.4,147,689.7,136.6,689.7,117z M750.1,146c10,0,16.5-6.6,18.2-18.8v0h5.6
	c-1.7,14.8-11.2,23.5-25.5,23.5c-17.6,0-28.8-13.6-28.8-35.4c0-20.9,11.3-35.1,28-35.1c16.2,0,25.6,12.2,26,33.7h-42.5
	c0.3,10.8,1,15.9,2.7,20.5C736.9,142.1,742.4,146,750.1,146z M747.5,83.8c-9.3,0-14.6,8.3-16,24.8h30.8
	C761.6,91.9,756.7,83.8,747.5,83.8z M789.5,151h-2.4v-24h3.1c0.9,4.6,1.7,7,3.1,10c2.9,5.6,8.7,9.2,15.5,9.2
	c8.3,0,14.7-5.6,14.7-12.9c0-4.4-2.1-7.3-8-10.3c-0.1-0.1-1.9-1-5.5-2.6c-2.1-1-4.9-2.3-8.3-3.9c-10.4-4.7-13.7-8.9-13.7-17.2
	c0-11.2,8.7-19.1,21.5-19.1c5.4,0,9.6,1.3,14.6,4.6l2.4-5.9h2.4v22.3h-3.1c-1.3-11.5-6.2-16.9-15-16.9c-7.6,0-13.5,5.2-13.5,11.8
	c0,4.6,2.1,7.2,8,10.2c1.3,0.6,2.2,1.1,5.3,2.4c1.8,0.8,4.2,1.9,7.8,3.5c10.7,4.7,14.6,9.5,14.6,17.8c0,12.1-9.6,20.7-22.9,20.7
	c-6.4,0-11.9-1.9-17.3-5.9L789.5,151z M877.2,114.1h-36.8v-6.5h36.8V114.1z M881.8,57v-3.4h37.6c9.3,0,14.9,1.4,19.8,5.2
	c5.3,4.3,8.4,10.9,8.4,18.2c0,10-5.3,17.2-15.6,21.2c12.9,2.6,20.2,11.2,20.2,23.7c0,9-4.6,17.8-11.9,22.4c-5.7,3.7-11.7,5-22.5,5
	h-36.1v-3.4c10.6-0.9,11.7-1.9,11.7-9.6V66.6C893.5,58.9,892.1,57.7,881.8,57z M905.5,58v39h9.7c7.9,0,11.7-1.1,14.9-4.7
	c3.2-3.4,4.7-8.5,4.7-15.1c0-13.3-5.2-19.2-17.2-19.2H905.5z M919.1,101.5h-13.6v36c0,6.2,1.3,7.3,8.7,7.3h5.3
	c12.7,0,19.9-8,19.9-22.4c0-6.7-1.9-12.8-5.1-16.2C931.1,102.9,926.6,101.5,919.1,101.5z M995.2,146c10,0,16.5-6.6,18.2-18.8v0h5.6
	c-1.7,14.8-11.2,23.5-25.5,23.5c-17.6,0-28.8-13.6-28.8-35.4c0-20.9,11.3-35.1,28-35.1c16.2,0,25.6,12.2,26,33.7h-42.5
	c0.3,10.8,1,15.9,2.7,20.5C982.1,142.1,987.5,146,995.2,146z M992.7,83.8c-9.3,0-14.6,8.3-16,24.8h30.8
	C1006.7,91.9,1001.8,83.8,992.7,83.8z M1030.9,85.9h-1.9v-2.6c8-1.1,14.2-2.4,18.9-4.3c0.7,2.4,1.3,7.2,1.6,12.5
	c5.3-7.7,11-11.2,19.3-11.2c7.6,0,14.2,3.4,17.7,9.3c2.1,3.4,3.1,8.3,3.1,15.1v34.4c0,6.2,1.6,7.3,10.3,7.7v2.9
	c-7.2-0.7-10.7-0.9-15.7-0.9c-4.7,0-8.4,0.1-15.4,0.9v-2.9c7.6-0.3,9.4-1.7,9.4-7.5v-35.1c0-6.6-0.6-9.8-2.3-12.5
	c-2.2-3.3-5.9-5-10.4-5c-5,0-9.5,2.3-12.2,6.2c-2,2.7-2.7,5.9-2.7,11.9v34.6c0,5.7,1.9,7.2,9.3,7.5v2.9c-7-0.7-10.7-0.9-15.5-0.9
	c-4.9,0-8.4,0.1-15.6,0.9v-2.9c8.9-0.4,10.3-1.6,10.3-7.7V94.7C1039.2,86.6,1038.6,86,1030.9,85.9z M1157.1,149.3h-49.2l38.8-64
	h-15.9c-9.3,0-11.6,2-16.6,14.9h-3l3.3-18.7h47.5l-38.9,64h16.7c7.4,0,10-1.3,13.6-6.9c1.7-3,3-5.7,4.4-10h3L1157.1,149.3z"/>
</svg>
