<svg width="576" height="167" viewBox="0 0 576 167" fill="none" xmlns="http://www.w3.org/2000/svg"><mask id="mask0" mask-type="alpha" maskUnits="userSpaceOnUse" x="0" y="0" width="201" height="163"><path fill-rule="evenodd" clip-rule="evenodd" d="M197 92.3395C196.297 91.7815 195.506 91.406 194.645 91.2447C189.559 96.2585 183.354 101.539 177.843 105.088C175.301 106.759 172.103 107.595 169.985 107.595C165.111 107.595 162.994 102.999 162.357 95.6926C161.51 85.8792 160.938 74.1249 160.938 55.958C160.938 37.3256 156.662 24.6589 145.272 23.6647C144.791 23.6223 144.305 23.5933 143.797 23.5933C136.805 23.5933 133.415 27.142 128.966 36.1224C125.153 43.8466 119.22 55.1223 108.204 76.4202C98.6701 94.7961 88.077 111.083 78.965 122.359C76.4277 125.484 74.4224 127.632 72.5375 128.853C71.2782 129.673 70.0697 130.083 68.797 130.083C65.2009 130.083 62.5753 127.081 61.6983 120.092C61.4898 118.432 61.3802 116.546 61.3802 114.423C61.3802 100.016 66.8907 76.6292 76.4224 42.1754C83.414 17.1198 80.4489 0 65.1929 0C65.1688 0 65.1447 0 65.1207 0C65.0886 0 65.0565 0 65.0217 0L65.011 0.00264439C61.5566 0.0423103 58.6931 1.27989 55.9339 3.42713C53.2174 5.54264 50.4983 10.1122 47.9609 16.2551C45.1001 23.1754 27.7051 57.6847 0.0190358 75.463C-0.307154 82.222 3.56167 88.9785 11.4009 89.711C18.537 90.38 23.6036 87.405 30.1274 83.0709C29.6382 85.2261 29.1863 87.2411 28.7746 89.0842C28.2879 91.2606 27.8735 93.1381 27.542 94.6533C27.0447 96.909 26.7292 98.3608 26.6356 98.7627C25.7292 102.875 25.0822 106.781 24.6624 110.488C20.7588 145 36.932 162.03 55.8724 162.03C59.038 162.03 62.1743 161.657 65.2891 160.874C86.1572 155.641 106.247 131.966 130.027 77.4648C129.666 83.3935 129.629 88.9309 129.888 94.0689C131.455 125.304 143.946 134.676 161.595 134.676C174.942 134.676 187.442 127.788 193.797 119.225C198.46 113.169 200.367 106.487 200.367 101.267C200.367 97.2157 199.067 93.9816 197 92.3395Z" fill="#000"/></mask><g mask="url(#mask0)"><rect width="23.996" height="205.344" transform="matrix(0.202505 0.979281 -0.97713 0.212642 179.006 -32.406)" fill="#212121"/><rect width="23.996" height="205.344" transform="matrix(0.202505 0.979281 -0.97713 0.212642 183.865 -8.9072)" fill="#625B54"/><rect width="23.996" height="205.344" transform="matrix(0.202505 0.979281 -0.97713 0.212642 188.725 14.5916)" fill="#DE5C58"/><rect width="23.996" height="205.344" transform="matrix(0.202505 0.979281 -0.97713 0.212642 193.584 38.0903)" fill="#EB9347"/><rect width="23.996" height="205.344" transform="matrix(0.202505 0.979281 -0.97713 0.212642 198.443 61.5891)" fill="#F0C265"/><rect width="23.996" height="205.344" transform="matrix(0.202505 0.979281 -0.97713 0.212642 203.303 85.0878)" fill="#6CB87C"/><rect width="23.996" height="205.344" transform="matrix(0.202505 0.979281 -0.97713 0.212642 208.162 108.587)" fill="#213F4D"/></g><path fill-rule="evenodd" clip-rule="evenodd" d="M530.281 138.755H546.969L575.841 67.4078H559.323L547.389 102.942L534.816 67.4078H516.38L538.333 118.944L530.281 138.755ZM447.457 84.3446V120.917H430.622V67.4077H442.451L445.967 72.082C450.548 68.3431 455.449 66.1596 461.097 66.1596C468.663 66.1596 474.416 68.3431 477.932 73.7479C483.047 69.1734 488.481 66.1596 495.409 66.1596C508.407 66.1596 515.974 72.7074 515.974 90.4746V120.917H499.138V92.3454C499.138 84.137 495.727 81.746 490.292 81.746C487.096 81.746 484.434 82.5763 481.449 84.4471C481.664 86.3179 481.769 88.2911 481.769 90.4746V120.917H464.934V92.3454C464.934 84.137 461.523 81.746 455.983 81.746C452.892 81.746 450.335 82.4738 447.457 84.3446ZM388.74 88.9165H410.372C409.2 81.9562 405.363 78.6298 399.61 78.6298C394.706 78.6298 390.02 81.436 388.74 88.9165ZM400.783 121.958C384.586 121.958 371.585 114.164 371.585 93.5909C371.585 74.3681 384.16 66.0572 398.651 66.0572C416.125 66.0572 423.904 78.0045 423.904 96.8123H388.633C389.808 106.058 395.668 108.762 403.447 108.762C410.971 108.762 416.855 106.952 421.409 103.964L419.124 116.986C414.778 120.26 409.561 121.958 400.783 121.958ZM338.094 108.139C341.929 108.139 344.806 107.514 347.789 105.333V82.0587C345.127 80.498 342.465 79.7728 338.628 79.7728C330.423 79.7728 325.735 85.1749 325.735 94.2135C325.735 103.047 330.531 108.139 338.094 108.139ZM351.093 116.97C346.725 120.192 341.719 122.165 334.578 122.165C319.553 122.165 308.686 113.126 308.686 94.5262C308.686 76.0312 321.154 66.0572 337.135 66.0572C340.864 66.0572 344.489 66.5774 347.789 67.8229V45.1107H364.627V120.917H353.971L351.093 116.97ZM237.352 89.2266V49.5696H254.826V88.9165C254.826 103.047 261.325 105.956 270.276 105.956C279.974 105.956 284.98 101.799 284.98 88.9165V49.5696H302.562V89.2266C302.562 112.606 292.121 122.373 269.425 122.373C248.326 122.373 237.352 113.957 237.352 89.2266Z" fill="#645A53"/></svg>
