<svg id="eventbrite" xmlns="http://www.w3.org/2000/svg" width="109.94" height="19.63" viewBox="0 0 109.94 19.63"><title>eventbrite</title><path d="M64.58-.28V7.44a6.71,6.71,0,0,1,9.33,1.78l.08.11A6.35,6.35,0,0,1,73.36,17a6.48,6.48,0,0,1-4.13,2.19,5.93,5.93,0,0,1-4.51-1.06c-.09.28-.15.5-.23.76h-3V.43Zm7.33,13.06a3.69,3.69,0,1,0-3.81,3.57h.08A3.7,3.7,0,0,0,71.91,12.78Z" transform="translate(0 0.28)" style="fill:#a1a7b3"/><path d="M3.6,14.78a3.65,3.65,0,0,0,5.08,1,3.56,3.56,0,0,0,.57-.47A.94.94,0,0,1,10.3,15c.73.2,1.47.37,2.4.6a15.43,15.43,0,0,1-1.29,1.72A6.46,6.46,0,0,1,4.62,19,6.3,6.3,0,0,1,.06,13.72,6.55,6.55,0,0,1,5.18,6.46a6.64,6.64,0,0,1,8,5,1,1,0,0,0,0,.17c.2.91.17,1-.76,1.18L4.17,14.66A1.57,1.57,0,0,0,3.6,14.78ZM3,12.3,9.6,10.8A3.49,3.49,0,0,0,5.87,9.24,3.44,3.44,0,0,0,3,12.3Z" transform="translate(0 0.28)" style="fill:#a1a7b3"/><path d="M100.4,14.78A3.62,3.62,0,0,0,105.16,16a2.35,2.35,0,0,0,.77-.56c.4-.58.87-.52,1.44-.35s1.31.31,2,.48a6.19,6.19,0,0,1-2.32,2.69,6.69,6.69,0,0,1-9.26-1.91,6.43,6.43,0,0,1-1-2.29,6.56,6.56,0,0,1,5.3-7.64l.22,0a6.75,6.75,0,0,1,7.22,4.12,14.06,14.06,0,0,1,.39,1.55c.1.41-.09.59-.51.68-2.81.62-5.62,1.26-8.43,1.9Zm6-4a3.59,3.59,0,0,0-4.52-1.32c-1.27.56-2.22,1.87-2,2.79Z" transform="translate(0 0.28)" style="fill:#a1a7b3"/><path d="M28.92,14.78c.26.91,1.9,1.78,3.24,1.63a3.91,3.91,0,0,0,2.53-1.23.74.74,0,0,1,.58-.23c.85.16,1.69.37,2.64.58a6.06,6.06,0,0,1-2,2.43,6.67,6.67,0,0,1-9.35-1.25,6.58,6.58,0,0,1-1.26-2.86A6.51,6.51,0,0,1,30.52,6.4a6.64,6.64,0,0,1,7.84,5.11c.22,1,.19,1-.75,1.25L29.48,14.6Zm6-4a3.61,3.61,0,0,0-4.17-1.46c-1.13.33-2.52,1.71-2.37,2.94Z" transform="translate(0 0.28)" style="fill:#a1a7b3"/><path d="M42.8,7.37,44,6.72a5,5,0,0,1,6.78,2,5.09,5.09,0,0,1,.62,2.44v7.79H48.59c-.45,0-.34-.35-.34-.6V12.85a10.65,10.65,0,0,0-.13-1.59c-.28-1.48-1.3-2.14-3-2a2.35,2.35,0,0,0-2.3,2.39.17.17,0,0,0,0,.07v6.45c0,.59-.13.85-.77.8s-1.57,0-2.41,0V7.19c0-.58.19-.73.73-.7a11.5,11.5,0,0,0,1.66,0C42.54,6.44,42.93,6.55,42.8,7.37Z" transform="translate(0 0.28)" style="fill:#a1a7b3"/><path d="M12.5,6.49h3c.21,0,.49.35.58.6C17,9.44,17.9,11.8,18.8,14.16c.09.24.19.47.35.84.15-.31.25-.51.34-.71.93-2.39,1.86-4.78,2.76-7.19.18-.47.39-.68.92-.65H26c-.4,1-.75,1.89-1.11,2.78Q23,13.82,21.09,18.41a.69.69,0,0,1-.76.51H18a.83.83,0,0,1-.61-.39C15.78,14.72,14.2,10.82,12.62,7A3.59,3.59,0,0,1,12.5,6.49Z" transform="translate(0 0.28)" style="fill:#a1a7b3"/><path d="M57.64,1.31V5.72c0,.63.2.84.8.78a7.5,7.5,0,0,1,1.34,0c.16,0,.42.19.42.31V9.47H57.67v9.46h-3.1c-.1,0-.26-.39-.26-.6V9.5h-1.5c-.5,0-.56-.09-.55-.49V7c0-.36.15-.48.5-.48s1.2.11,1.39-.14a3.76,3.76,0,0,0,.15-1.52V2.52c0-.19.16-.5.3-.54C55.58,1.72,56.58,1.54,57.64,1.31Z" transform="translate(0 0.28)" style="fill:#a1a7b3"/><path d="M90.94,2.08H94.3V6c0,.39.13.55.51.54a14.23,14.23,0,0,1,1.6,0,.58.58,0,0,1,.44.35V9.49H95.1c-.56,0-.84.13-.83.8v8.6H91V10.21c0-.5-.14-.7-.65-.66s-.88,0-1.41,0V6.88c0-.12.21-.25.34-.34s.16,0,.25,0c1.44,0,1.44,0,1.44-1.45Z" transform="translate(0 0.28)" style="fill:#a1a7b3"/><path d="M79.36,19H76.52c-.49,0-.37-.37-.38-.65V7.07c0-.44.15-.6.59-.59H79.3a6.29,6.29,0,0,0,.11.88l3.61-1v3.2c-.46.07-.94.12-1.41.22a2.42,2.42,0,0,0-2.24,2.61.34.34,0,0,0,0,.1v5.68Z" transform="translate(0 0.28)" style="fill:#a1a7b3"/><path d="M87.46,18.92h-3c0-.27,0-.49,0-.71v-11c0-.56.15-.76.71-.72s1.32,0,2,0c.31,0,.46.1.46.44v11.8A.76.76,0,0,1,87.46,18.92Z" transform="translate(0 0.28)" style="fill:#a1a7b3"/><path d="M86,0a2,2,0,0,1,2,1.9h0A2,2,0,0,1,86,3.9h0a2.06,2.06,0,0,1-2.1-2A2,2,0,0,1,86,0Z" transform="translate(0 0.28)" style="fill:#a1a7b3"/></svg>