<svg id="volkswagen" xmlns="http://www.w3.org/2000/svg" width="31.85" height="31.85" viewBox="0 0 31.85 31.85"><title>volkswagen</title><path id="Combined-Shape" d="M16.07.14A15.93,15.93,0,1,1,.14,16.07,16,16,0,0,1,16.07.14Zm0,2h0A13.9,13.9,0,1,0,30,16.07,13.94,13.94,0,0,0,16.07,2.16ZM6.77,8.59a12,12,0,0,1,3.36-2.88l3.51,9.67h4.94l3.49-9.63a12,12,0,0,1,3.16,2.69l-5,13.08L18.37,16.8H13.58l-1.83,4.72Zm20.47,3.25a12,12,0,0,1-5.68,14.81ZM19.08,27.62a12.12,12.12,0,0,1-6.21-.05l0-.25,3.08-8,3.07,8Zm-8.74-1.1A11.92,11.92,0,0,1,4.13,16.07a11.58,11.58,0,0,1,.68-4ZM16.07,4.13a11.92,11.92,0,0,1,3.05.39l-3,8.34-3-8.35A11.78,11.78,0,0,1,16.07,4.13Z" transform="translate(-0.14 -0.14)" style="fill:#a1a7b3;fill-rule:evenodd"/></svg>